<svg width="64" height="64" viewBox="0 0 64 64" fill="none" xmlns="http://www.w3.org/2000/svg">
  <defs>
    <linearGradient id="rg-orbit" x1="12" y1="8" x2="52" y2="52" gradientUnits="userSpaceOnUse">
      <stop stop-color="#22D3EE" />
      <stop offset="1" stop-color="#3B82F6" />
    </linearGradient>
    <linearGradient id="rg-core" x1="20" y1="20" x2="44" y2="44" gradientUnits="userSpaceOnUse">
      <stop stop-color="#0EA5E9" />
      <stop offset="1" stop-color="#22D3EE" />
    </linearGradient>
  </defs>
  <circle cx="32" cy="32" r="18" stroke="url(#rg-orbit)" stroke-width="4" opacity="0.6" />
  <path d="M19 34.5C19 25 26.8 17.2 36.3 17.2C41.6 17.2 46.4 19.9 49.4 24.1" stroke="url(#rg-orbit)" stroke-width="4" stroke-linecap="round" />
  <path d="M14.6 28.9C15.5 27 16.7 25.3 18.1 23.7C24.1 16.9 34.1 15.2 42.1 19.3" stroke="url(#rg-orbit)" stroke-width="3" stroke-linecap="round" opacity="0.5" />
  <circle cx="32" cy="32" r="12" fill="url(#rg-core)" opacity="0.9" />
  <path d="M24 36C25.8 38.5 28.7 40 32 40C36.4 40 40 36.4 40 32C40 29.2 38.6 26.7 36.4 25.3" stroke="#0F172A" stroke-opacity="0.4" stroke-width="2.5" stroke-linecap="round" />
  <circle cx="46" cy="20" r="4" fill="#22D3EE" />
</svg>
